# xmcd
#
# Track frame offsets:
#	150
#	16382
#	32914
#	48367
#	65119
#	81773
#	91973
#	107118
#	126977
#	138223
#	158313
#	174685
#	190939
#
# Disc length: 2580 seconds
#
# Revision: 1
# Processed by: cddbd v1.5.2PL0 Copyright (c) Steve Scherf et al.
# Submitted via: audiograbber 1.83.01
#
DISCID=aa0a120d
DTITLE=Doro - Force Majeure
DYEAR=1989
DGENRE=Heavy Metal
TTITLE0=A Whiter Shade Of Pale
TTITLE1=Save My Soul
TTITLE2=World Gone Wild
TTITLE3=Mission Of Mercy
TTITLE4=Angels With Dirty Faces
TTITLE5=Beyond The Trees
TTITLE6=Hard Times
TTITLE7=Hellraiser
TTITLE8=I Am What I Am
TTITLE9=Cry Wolf
TTITLE10=Under The Gun
TTITLE11=River Of Tears
TTITLE12=Bis Aufs Blut
EXTD=
EXTT0=
EXTT1=
EXTT2=
EXTT3=
EXTT4=
EXTT5=
EXTT6=
EXTT7=
EXTT8=
EXTT9=
EXTT10=
EXTT11=
EXTT12=
PLAYORDER=
